<svg width="1000" height="1000" viewBox="0 0 1000 1000" fill="none" xmlns="http://www.w3.org/2000/svg">
<rect width="1000" height="1000" rx="500" fill="#D9D9D9"/>
<path d="M803.222 306.251L693.751 196.778C688.713 191.741 680.544 191.74 675.505 196.778C670.467 201.816 670.467 209.985 675.505 215.024L698.311 237.83L652.697 283.443L595.226 225.972C590.187 220.934 582.02 220.934 576.98 225.972C571.942 231.01 571.942 239.179 576.98 244.217L602.523 269.76L365.335 506.948C362.916 509.367 361.556 512.65 361.556 516.071C361.556 519.492 362.916 522.775 365.335 525.193L392.702 552.561L342.528 602.735C337.49 607.773 337.49 615.942 342.528 620.981L351.651 630.103L235.805 745.949C230.767 750.987 230.767 759.156 235.805 764.194C238.324 766.713 241.626 767.973 244.927 767.973C248.229 767.973 251.531 766.712 254.05 764.194L369.894 648.348L379.017 657.471C381.536 659.99 384.838 661.249 388.139 661.249C391.441 661.249 394.743 659.99 397.262 657.471L447.436 607.297L474.805 634.664C477.323 637.184 480.626 638.443 483.927 638.443C487.229 638.443 490.531 637.184 493.05 634.664L730.239 397.475L755.782 423.019C758.302 425.538 761.603 426.798 764.905 426.798C768.206 426.798 771.508 425.537 774.027 423.019C779.065 417.981 779.065 409.812 774.027 404.774L716.554 347.301L762.166 301.689L784.972 324.496C787.492 327.015 790.793 328.275 794.095 328.275C797.396 328.275 800.699 327.014 803.217 324.496C808.26 319.458 808.26 311.289 803.222 306.251ZM388.142 630.102L369.897 611.857L410.949 570.806L429.193 589.05L388.142 630.102ZM689.188 402.037L656.954 369.805C651.915 364.767 643.749 364.767 638.708 369.805C633.67 374.843 633.67 383.012 638.708 388.05L670.942 420.282L648.136 443.088L615.904 410.855C610.865 405.817 602.698 405.817 597.658 410.855C592.62 415.893 592.62 424.062 597.658 429.1L629.89 461.333L607.085 484.139L574.851 451.907C569.812 446.869 561.645 446.869 556.605 451.907C551.567 456.945 551.567 465.114 556.605 470.152L588.839 502.384L566.033 525.19L533.8 492.957C528.761 487.919 520.595 487.919 515.554 492.957C510.516 497.995 510.516 506.164 515.554 511.202L547.788 543.437L524.982 566.243L492.75 534.01C487.712 528.972 479.543 528.972 474.504 534.01C469.466 539.048 469.466 547.217 474.504 552.256L506.736 584.489L483.931 607.294L392.704 516.069L620.769 288.005L711.996 379.231L689.188 402.037ZM698.312 329.057L670.944 301.689L716.556 256.077L743.923 283.444L698.312 329.057Z" fill="#961616"/>
<path d="M198.069 783.685L196.778 784.975C191.741 790.013 191.741 798.182 196.778 803.221C199.299 805.741 202.601 807 205.902 807C209.204 807 212.506 805.741 215.025 803.221L216.315 801.931C221.353 796.893 221.353 788.724 216.315 783.685C211.276 778.647 203.107 778.647 198.069 783.685Z" fill="#961616"/>
</svg>
